<svg width="86" height="111" viewBox="0 0 86 111" fill="none" xmlns="http://www.w3.org/2000/svg">
    <path d="M85.25 19.9524C85.25 9.27058 76.3876 0.580322 65.4941 0.580322C56.8676 0.580322 49.5158 6.03056 46.8292 13.6036H7.7207C3.60136 13.6036 0.25 16.8898 0.25 20.9292V103.255C0.25 107.294 3.60136 110.58 7.7207 110.58H69.6445C73.7639 110.58 77.1152 107.294 77.1152 103.255V35.6082C82.0421 32.0819 85.25 26.3781 85.25 19.9524ZM65.4941 5.46404C73.6414 5.46404 80.2695 11.9635 80.2695 19.9524C80.2695 27.9414 73.6414 34.4408 65.4941 34.4408C57.3469 34.4408 50.7188 27.9414 50.7188 19.9524C50.7188 11.9635 57.3469 5.46404 65.4941 5.46404ZM72.1348 103.255C72.1348 104.601 71.0176 105.697 69.6445 105.697H7.7207C6.34759 105.697 5.23047 104.601 5.23047 103.255V20.9292C5.23047 19.5827 6.34759 18.4873 7.7207 18.4873H45.7946C45.7575 18.9711 45.7383 19.4596 45.7383 19.9524C45.7383 30.6343 54.6007 39.3245 65.4941 39.3245C67.823 39.3245 70.0584 38.9262 72.1348 38.1973V103.255Z" fill="#C4C4C4"/>
    <path d="M60.6104 24.9514C60.9863 25.6885 61.7159 26.1899 62.5507 26.285C62.6468 26.2957 62.7426 26.3013 62.838 26.3013C63.572 26.3013 64.2747 25.9828 64.7509 25.4227L71.3915 17.6087C72.2719 16.5727 72.1291 15.033 71.0726 14.1696C70.0162 13.3063 68.4459 13.4463 67.5653 14.4823L63.3623 19.4281L62.4089 17.5583C61.7938 16.352 60.2978 15.8628 59.0678 16.4663C57.8376 17.0692 57.3391 18.5361 57.9542 19.7423L60.6104 24.9514Z" fill="#C4C4C4"/>
    <circle cx="65.25" cy="19.5803" r="17" fill="#ED1631"/>
    <path d="M67.5331 17.3162V17.5662H67.7831H73V21.4284H67.7831H67.5331V21.6784V27.3303H62.983V21.6784V21.4284H62.733H57.5V17.5662H62.733H62.983V17.3162V11.8303H67.5331V17.3162Z" fill="white" stroke="#ED1631" stroke-width="0.5"/>
    <ellipse cx="65.6187" cy="20.21" rx="16.6187" ry="16.21" fill="#ED1631"/>
</svg>