<svg width="86" height="111" viewBox="0 0 86 111" fill="none" xmlns="http://www.w3.org/2000/svg">
    <path d="M85.75 19.9524C85.75 9.27058 76.8876 0.580322 65.9941 0.580322C57.3676 0.580322 50.0158 6.03056 47.3292 13.6036H8.2207C4.10136 13.6036 0.75 16.8898 0.75 20.9292V103.255C0.75 107.294 4.10136 110.58 8.2207 110.58H70.1445C74.2639 110.58 77.6152 107.294 77.6152 103.255V35.6082C82.5421 32.0819 85.75 26.3781 85.75 19.9524ZM65.9941 5.46404C74.1414 5.46404 80.7695 11.9635 80.7695 19.9524C80.7695 27.9414 74.1414 34.4408 65.9941 34.4408C57.8469 34.4408 51.2188 27.9414 51.2188 19.9524C51.2188 11.9635 57.8469 5.46404 65.9941 5.46404ZM72.6348 103.255C72.6348 104.601 71.5176 105.697 70.1445 105.697H8.2207C6.84759 105.697 5.73047 104.601 5.73047 103.255V20.9292C5.73047 19.5827 6.84759 18.4873 8.2207 18.4873H46.2946C46.2575 18.9711 46.2383 19.4596 46.2383 19.9524C46.2383 30.6343 55.1007 39.3245 65.9941 39.3245C68.323 39.3245 70.5584 38.9262 72.6348 38.1973V103.255Z" fill="#C4C4C4"/>
    <path d="M61.1104 24.9514C61.4863 25.6885 62.2159 26.1899 63.0507 26.285C63.1468 26.2957 63.2426 26.3013 63.338 26.3013C64.072 26.3013 64.7747 25.9828 65.2509 25.4227L71.8915 17.6087C72.7719 16.5727 72.6291 15.033 71.5726 14.1696C70.5162 13.3063 68.9459 13.4463 68.0653 14.4823L63.8623 19.4281L62.9089 17.5583C62.2938 16.352 60.7978 15.8628 59.5678 16.4663C58.3376 17.0692 57.8391 18.5361 58.4542 19.7423L61.1104 24.9514Z" fill="#C4C4C4"/>
    <circle cx="65.75" cy="19.5803" r="17" fill="#ED1631"/>
</svg>