<svg width="85" height="111" viewBox="0 0 85 111" fill="none" xmlns="http://www.w3.org/2000/svg">
    <path d="M85 19.9524C85 9.27058 76.1376 0.580322 65.2441 0.580322C56.6176 0.580322 49.2658 6.03056 46.5792 13.6036H7.4707C3.35136 13.6036 0 16.8898 0 20.9292V103.255C0 107.294 3.35136 110.58 7.4707 110.58H69.3945C73.5139 110.58 76.8652 107.294 76.8652 103.255V35.6082C81.7921 32.0819 85 26.3781 85 19.9524ZM65.2441 5.46404C73.3914 5.46404 80.0195 11.9635 80.0195 19.9524C80.0195 27.9414 73.3914 34.4408 65.2441 34.4408C57.0969 34.4408 50.4688 27.9414 50.4688 19.9524C50.4688 11.9635 57.0969 5.46404 65.2441 5.46404ZM71.8848 103.255C71.8848 104.601 70.7676 105.697 69.3945 105.697H7.4707C6.09759 105.697 4.98047 104.601 4.98047 103.255V20.9292C4.98047 19.5827 6.09759 18.4873 7.4707 18.4873H45.5446C45.5075 18.9711 45.4883 19.4596 45.4883 19.9524C45.4883 30.6343 54.3507 39.3245 65.2441 39.3245C67.573 39.3245 69.8084 38.9262 71.8848 38.1973V103.255Z" fill="#C4C4C4"/>
    <path d="M60.3605 24.9514C60.7363 25.6885 61.466 26.1899 62.3007 26.285C62.3968 26.2957 62.4926 26.3013 62.5881 26.3013C63.322 26.3013 64.0248 25.9828 64.5009 25.4227L71.1415 17.6087C72.0219 16.5727 71.8791 15.033 70.8226 14.1696C69.7663 13.3063 68.1959 13.4463 67.3154 14.4823L63.1123 19.4281L62.1589 17.5583C61.5438 16.352 60.0479 15.8628 58.8178 16.4663C57.5877 17.0692 57.0891 18.5361 57.7042 19.7423L60.3605 24.9514Z" fill="#C4C4C4"/>
    <path d="M25.1191 87.8398C25.0215 88.7383 24.6992 89.4258 24.1523 89.9023C23.6094 90.3789 22.8848 90.6172 21.9785 90.6172C21.3457 90.6172 20.7852 90.459 20.2969 90.1426C19.8125 89.8262 19.4375 89.3789 19.1719 88.8008C18.9062 88.2188 18.7715 87.5547 18.7676 86.8086V85.7012C18.7676 84.9434 18.9004 84.2715 19.166 83.6855C19.4316 83.0996 19.8125 82.6484 20.3086 82.332C20.8086 82.0117 21.3828 81.8516 22.0312 81.8516C22.9453 81.8516 23.666 82.0996 24.1934 82.5957C24.7246 83.0879 25.0332 83.7695 25.1191 84.6406H24.3926C24.2129 83.1914 23.4258 82.4668 22.0312 82.4668C21.2578 82.4668 20.6406 82.7559 20.1797 83.334C19.7227 83.9121 19.4941 84.7109 19.4941 85.7305V86.7734C19.4941 87.7578 19.7168 88.543 20.1621 89.1289C20.6113 89.7148 21.2168 90.0078 21.9785 90.0078C22.7324 90.0078 23.3008 89.8281 23.6836 89.4688C24.0664 89.1055 24.3027 88.5625 24.3926 87.8398H25.1191ZM28.4297 87.5938H27.457V90.5H26.748V84.1602H27.457V86.9727H28.418L30.7441 84.1602H31.6289L29.0273 87.2363L31.916 90.5H30.9902L28.4297 87.5938ZM36.9316 90.5C36.8613 90.3008 36.8164 90.0059 36.7969 89.6152C36.5508 89.9355 36.2363 90.1836 35.8535 90.3594C35.4746 90.5312 35.0723 90.6172 34.6465 90.6172C34.0371 90.6172 33.543 90.4473 33.1641 90.1074C32.7891 89.7676 32.6016 89.3379 32.6016 88.8184C32.6016 88.2012 32.8574 87.7129 33.3691 87.3535C33.8848 86.9941 34.6016 86.8145 35.5195 86.8145H36.791V86.0938C36.791 85.6406 36.6504 85.2852 36.3691 85.0273C36.0918 84.7656 35.6855 84.6348 35.1504 84.6348C34.6621 84.6348 34.2578 84.7598 33.9375 85.0098C33.6172 85.2598 33.457 85.5605 33.457 85.9121L32.7539 85.9062C32.7539 85.4023 32.9883 84.9668 33.457 84.5996C33.9258 84.2285 34.502 84.043 35.1855 84.043C35.8926 84.043 36.4492 84.2207 36.8555 84.5762C37.2656 84.9277 37.4766 85.4199 37.4883 86.0527V89.0527C37.4883 89.666 37.5527 90.125 37.6816 90.4297V90.5H36.9316ZM34.7285 89.9961C35.1973 89.9961 35.6152 89.8828 35.9824 89.6562C36.3535 89.4297 36.623 89.127 36.791 88.748V87.3535H35.5371C34.8379 87.3613 34.291 87.4902 33.8965 87.7402C33.502 87.9863 33.3047 88.3262 33.3047 88.7598C33.3047 89.1152 33.4355 89.4102 33.6973 89.6445C33.9629 89.8789 34.3066 89.9961 34.7285 89.9961ZM43.875 90.5H43.1719V87.834C42.5938 88.0449 42.041 88.1504 41.5137 88.1504C40.6738 88.1504 40.0645 87.9668 39.6855 87.5996C39.3066 87.2285 39.1094 86.6523 39.0938 85.8711V84.1602H39.791V85.8359C39.7988 86.4414 39.9316 86.8789 40.1895 87.1484C40.4512 87.4141 40.8926 87.5469 41.5137 87.5469C42.0801 87.5312 42.6328 87.4297 43.1719 87.2422V84.1602H43.875V90.5ZM49.752 90.5C49.6816 90.3008 49.6367 90.0059 49.6172 89.6152C49.3711 89.9355 49.0566 90.1836 48.6738 90.3594C48.2949 90.5312 47.8926 90.6172 47.4668 90.6172C46.8574 90.6172 46.3633 90.4473 45.9844 90.1074C45.6094 89.7676 45.4219 89.3379 45.4219 88.8184C45.4219 88.2012 45.6777 87.7129 46.1895 87.3535C46.7051 86.9941 47.4219 86.8145 48.3398 86.8145H49.6113V86.0938C49.6113 85.6406 49.4707 85.2852 49.1895 85.0273C48.9121 84.7656 48.5059 84.6348 47.9707 84.6348C47.4824 84.6348 47.0781 84.7598 46.7578 85.0098C46.4375 85.2598 46.2773 85.5605 46.2773 85.9121L45.5742 85.9062C45.5742 85.4023 45.8086 84.9668 46.2773 84.5996C46.7461 84.2285 47.3223 84.043 48.0059 84.043C48.7129 84.043 49.2695 84.2207 49.6758 84.5762C50.0859 84.9277 50.2969 85.4199 50.3086 86.0527V89.0527C50.3086 89.666 50.373 90.125 50.502 90.4297V90.5H49.752ZM47.5488 89.9961C48.0176 89.9961 48.4355 89.8828 48.8027 89.6562C49.1738 89.4297 49.4434 89.127 49.6113 88.748V87.3535H48.3574C47.6582 87.3613 47.1113 87.4902 46.7168 87.7402C46.3223 87.9863 46.125 88.3262 46.125 88.7598C46.125 89.1152 46.2559 89.4102 46.5176 89.6445C46.7832 89.8789 47.127 89.9961 47.5488 89.9961ZM56.6426 84.7578H54.334V90.5H53.6309V84.7578H51.4102V84.1602H56.6426V84.7578ZM58.5703 86.4629H60.3984C60.8672 86.4629 61.2773 86.5488 61.6289 86.7207C61.9844 86.8887 62.252 87.123 62.4316 87.4238C62.6152 87.7246 62.707 88.0742 62.707 88.4727C62.707 89.0859 62.4961 89.5781 62.0742 89.9492C61.6562 90.3164 61.0898 90.5 60.375 90.5H57.873V84.1602H58.5703V86.4629ZM58.5703 87.0605V89.9082H60.3867C60.8906 89.9082 61.2852 89.7812 61.5703 89.5273C61.8594 89.2734 62.0039 88.9258 62.0039 88.4844C62.0039 88.0625 61.8633 87.7227 61.582 87.4648C61.3047 87.2031 60.9238 87.0684 60.4395 87.0605H58.5703Z" fill="#EC1630"/>
    <path d="M18 91.6719H63.3047V92.2578H18V91.6719Z" fill="#EC1630"/>
    <circle cx="65" cy="19.5803" r="17" fill="#ED1631"/>
    <path d="M60.4999 15.8303H64.0356V9.15175C64.0356 8.28432 64.7381 7.58032 65.6071 7.58032C66.4761 7.58032 67.1785 8.28432 67.1785 9.15175V15.8303H70.7142C71.7655 15.8303 72.2888 17.1032 71.5471 17.8417L66.4399 22.9489C66.2105 23.1799 65.9088 23.2946 65.6071 23.2946C65.3053 23.2946 65.0036 23.1799 64.7742 22.9489L59.6671 17.8417C58.9253 17.1032 59.4486 15.8303 60.4999 15.8303Z" fill="white"/>
    <path d="M73.4642 29.5802H57.7499C56.8809 29.5802 56.1785 28.8762 56.1785 28.0088C56.1785 27.1413 56.8809 26.4373 57.7499 26.4373H73.4642C74.3332 26.4373 75.0356 27.1413 75.0356 28.0088C75.0356 28.8762 74.3332 29.5802 73.4642 29.5802Z" fill="white"/>
    <path d="M27.3182 23.0803H21.6818C20.9036 23.0803 20.2727 23.6516 20.2727 24.3564V34.5652C20.2727 35.27 20.9036 35.8413 21.6818 35.8413H27.3182C28.8746 35.8413 30.1364 34.6986 30.1364 33.2891V25.6325C30.1364 24.223 28.8746 23.0803 27.3182 23.0803ZM27.3182 33.2891H23.0909V25.6325H27.3182V33.2891Z" fill="#EC1630"/>
    <path d="M40 25.6325V23.0803H32.9545C32.1763 23.0803 31.5454 23.6516 31.5454 24.3564V35.8413H34.3636V30.7369H40V28.1847H34.3636V25.6325H40Z" fill="#EC1630"/>
    <path d="M16.0455 23.0803H10.4091C9.63083 23.0803 9 23.6516 9 24.3564V35.8413H11.8182V32.013H16.0455C17.6019 32.013 18.8636 30.8703 18.8636 29.4608V25.6325C18.8636 24.223 17.6019 23.0803 16.0455 23.0803ZM16.0455 29.4608H11.8182V25.6325H16.0455V29.4608Z" fill="#EC1630"/>
    <path d="M20 65.0803H14.9858V46.7429L9 48.5042V44.6359L19.4621 41.0803H20V65.0803Z" fill="#EC1630"/>
</svg>